<svg width="4300" height="4649" viewBox="0 0 4300 4649" fill="none" xmlns="http://www.w3.org/2000/svg">
<path d="M2290.58 1513.77H1941.42V4429.07H2290.58V1513.77Z" fill="#FCF9DE"/>
<path d="M2150.99 1513.77H1941.42V4429.07H2150.99V1513.77Z" fill="#FFF4C1"/>
<path d="M4176.73 0H123.277C55.1913 0 0 45.5882 0 101.828V342.803C0 1284.38 924.087 2047.68 2064.01 2047.68H2235.99C3375.91 2047.68 4300 1284.38 4300 342.803V101.828C4300.01 45.5882 4244.82 0 4176.73 0Z" fill="#FCF9DE"/>
<path d="M2803.68 1945.85C1663.76 1945.85 739.676 1182.55 739.676 240.975V0H123.289C55.2031 0 0.0118408 45.5882 0.0118408 101.828V342.803C0.0118408 1284.38 924.099 2047.68 2064.02 2047.68H2236C2483.27 2047.68 2720.36 2011.72 2940.1 1945.85H2803.68Z" fill="#FFF4C1"/>
<path d="M3206.2 4649C3260.41 4649 3285.8 4593.43 3245 4563.94C2984.72 4375.72 2590.97 4255.68 2150.01 4255.68C1709.04 4255.68 1315.29 4375.73 1054.99 4563.94C1014.2 4593.44 1039.58 4649 1093.8 4649H3206.2Z" fill="#FCF9DE"/>
<path d="M246.554 342.792C246.554 438.785 257.649 532.66 278.594 623.684H4021.4C4042.35 532.66 4053.45 438.785 4053.45 342.792V305.473C4053.45 249.233 3998.25 203.645 3930.17 203.645H369.832C301.746 203.645 246.554 249.233 246.554 305.473V342.792Z" fill="#FFEACF"/>
<path d="M278.596 623.693C438.289 1317.67 1178.08 1844.04 2064.02 1844.04H2235.99C3121.93 1844.04 3861.73 1317.68 4021.42 623.693H278.596V623.693Z" fill="#A56021"/>
<path d="M739.664 305.483C739.664 249.243 794.855 203.655 862.941 203.655H369.832C301.746 203.655 246.554 249.243 246.554 305.483V342.803C246.554 438.796 257.649 532.67 278.594 623.694H771.704C750.759 532.67 739.664 438.796 739.664 342.803V305.483Z" fill="#FFD59A"/>
<path d="M771.705 623.693H278.596C438.289 1317.67 1178.08 1844.04 2064.02 1844.04H2235.99C2290.1 1844.04 2343.65 1842.04 2396.56 1838.2C1583.01 1779.08 921.647 1275.29 771.705 623.693Z" fill="#8C4C17"/>
<path d="M1548.1 4563.93C1758.76 4411.62 2056.82 4303.97 2396.56 4268.44C2316.49 4260.06 2234.12 4255.67 2150.01 4255.67C1709.04 4255.67 1315.29 4375.72 1054.99 4563.93C1014.2 4593.43 1039.58 4649 1093.8 4649H1586.91C1532.71 4649 1507.31 4593.43 1548.1 4563.93Z" fill="#FFF4C1"/>
<path d="M2760.16 1621.16C2730.75 1621.16 2702.96 1606.58 2691.43 1582.65C2676.29 1551.31 2694.79 1515.77 2732.75 1503.28C2929.97 1438.36 2969.28 1385.85 2969.65 1385.33C2967.69 1388.08 2967.25 1389.64 2967.25 1389.64L3104.52 1435.18C3094.03 1456.75 3040.16 1533.62 2787.54 1616.79C2778.54 1619.76 2769.27 1621.16 2760.16 1621.16Z" fill="#FFF4C1"/>
<path d="M1691.32 1176.59C1793.44 1176.59 1876.23 1108.2 1876.23 1023.84C1876.23 939.487 1793.44 871.103 1691.32 871.103C1589.19 871.103 1506.4 939.487 1506.4 1023.84C1506.4 1108.2 1589.19 1176.59 1691.32 1176.59Z" fill="#BF6C0D"/>
<path d="M2046.21 1666.51C2148.33 1666.51 2231.12 1598.13 2231.12 1513.77C2231.12 1429.41 2148.33 1361.03 2046.21 1361.03C1944.08 1361.03 1861.29 1429.41 1861.29 1513.77C1861.29 1598.13 1944.08 1666.51 2046.21 1666.51Z" fill="#BF6C0D"/>
<path d="M2416.04 982.01C2518.16 982.01 2600.95 913.625 2600.95 829.269C2600.95 744.912 2518.16 676.527 2416.04 676.527C2313.91 676.527 2231.12 744.912 2231.12 829.269C2231.12 913.625 2313.91 982.01 2416.04 982.01Z" fill="#BF6C0D"/>
<path d="M3299.1 1291.9C3276.6 1291.9 3254.39 1283.46 3239.85 1267.45C3215.38 1240.48 3221.96 1202.26 3254.52 1181.99C3258.05 1179.78 3608.94 956.12 3750.61 496.328C3760.67 463.631 3800.95 443.846 3840.53 452.186C3880.13 460.505 3904.05 493.762 3893.97 526.459C3738.79 1030.13 3359.48 1269.73 3343.4 1279.68C3330.12 1287.93 3314.53 1291.9 3299.1 1291.9Z" fill="#FFF4C1"/>
</svg>
