<svg width="2998" height="2927" viewBox="0 0 2998 2927" fill="none" xmlns="http://www.w3.org/2000/svg">
<path d="M1499 510.441L1547 833.484H1684.6L1732.59 510.441C1732.59 459.717 1693.87 418.593 1646.09 418.593H1585.5C1537.73 418.593 1499 459.717 1499 510.441Z" fill="#DB9C2E"/>
<path d="M1663.75 420.521C1658.05 419.265 1652.14 418.593 1646.09 418.593H1585.5C1537.73 418.593 1499 459.711 1499 510.441L1546.99 833.484H1642.9L1594.91 510.441C1594.91 466.146 1624.45 429.183 1663.75 420.521Z" fill="#BF6C0D"/>
<path d="M1786.6 0H1371.73C1006.64 0 710.666 314.238 710.666 701.867V1116.3H805.103V701.867C805.103 369.612 1058.79 100.266 1371.73 100.266H1786.6C2099.54 100.266 2353.23 369.612 2353.23 701.867V1116.3H2447.67V701.867C2447.67 314.238 2151.7 0 1786.6 0Z" fill="#CCC033"/>
<path d="M1898.84 2927H1247.33C1139.92 2927 1052.83 2834.55 1052.83 2720.49H2093.33C2093.33 2834.54 2006.26 2927 1898.84 2927Z" fill="#DB9C2E"/>
<path d="M710.666 1116.31C559.784 1299.78 469.579 1532.11 469.579 1784.86C469.579 2378.16 966.362 2859.12 1579.17 2859.12C2191.97 2859.12 2688.76 2378.16 2688.76 1784.86C2688.76 1532.11 2598.55 1299.78 2447.67 1116.31H710.666V1116.31Z" fill="#FFDF74"/>
<path d="M38.3972 1243.31H248.582C270.225 1243.31 289.458 1257.76 296.76 1279.4C326.792 1368.35 430.186 1588.28 710.665 1550.8V2165.76C710.665 2165.76 75.6349 2127.01 0.174751 1287.69C-1.96719 1263.87 15.8589 1243.31 38.3972 1243.31Z" fill="#FFDF74"/>
<path d="M1898.86 2791.23C1286.05 2791.23 789.272 2310.28 789.272 1716.98C789.272 1494.45 859.22 1287.77 978.913 1116.31H710.666C559.784 1299.78 469.579 1532.11 469.579 1784.86C469.579 2378.16 966.362 2859.12 1579.17 2859.12C1718.62 2859.12 1852.03 2834.14 1974.99 2788.67C1949.83 2790.32 1924.45 2791.23 1898.86 2791.23Z" fill="#FFC34C"/>
<path d="M729.764 1144.24H2428.56C2458.96 1144.24 2474.39 1105.11 2452.82 1082.37C2236.04 853.859 1924.89 710.602 1579.16 710.602C1233.43 710.602 922.282 853.866 705.505 1082.37C683.945 1105.11 699.374 1144.24 729.764 1144.24Z" fill="#DB9C2E"/>
<path d="M1834.92 778.479C1897.59 778.479 1959.1 783.252 2019.13 792.321C1883.09 739.656 1734.65 710.595 1579.17 710.595C1233.43 710.595 922.289 853.859 705.512 1082.37C683.946 1105.11 699.374 1144.24 729.764 1144.24H967.117C1183.63 919.266 1492.26 778.479 1834.92 778.479Z" fill="#BF6C0D"/>
<path d="M150.718 1243.31H38.3972C15.8589 1243.31 -1.96719 1263.87 0.174751 1287.69C75.6349 2127.01 710.665 2165.76 710.665 2165.76V1934.75C539.029 1880.16 244.861 1718.24 150.718 1243.31Z" fill="#FFC34C"/>
<path d="M2226.94 2741.57H2784.44V2850.48C2784.44 2892.74 2752.18 2927 2712.37 2927H2299.01C2259.21 2927 2226.94 2892.74 2226.94 2850.48V2741.57V2741.57Z" fill="#EACF32"/>
<path d="M2598.38 2864.08H2412.99C2192.29 2864.08 2013.37 2674.13 2013.37 2439.8V2256.37C2013.37 2237.62 2027.69 2222.42 2045.34 2222.42H2966.03C2983.68 2222.42 2998 2237.62 2998 2256.37V2439.8C2998 2674.13 2819.09 2864.08 2598.38 2864.08Z" fill="#FCDA4F"/>
<path d="M2668.74 2796.2C2448.04 2796.2 2269.13 2606.24 2269.13 2371.92V2222.42H2045.34C2027.69 2222.42 2013.37 2237.62 2013.37 2256.37V2439.8C2013.37 2674.13 2192.29 2864.08 2412.99 2864.08H2598.38C2678.29 2864.08 2752.65 2839.08 2815.09 2796.2H2668.74Z" fill="#EACF32"/>
<path d="M2703.38 2761.23C2683.8 2761.23 2667.08 2745.4 2665.23 2724.29C2663.25 2701.9 2678.75 2682.04 2699.85 2679.94C2853.69 2664.67 2850.67 2379.04 2850.62 2376.16C2850.25 2353.68 2867.09 2335.11 2888.26 2334.69C2888.51 2334.68 2888.75 2334.68 2888.99 2334.68C2909.83 2334.68 2926.92 2352.36 2927.34 2374.58C2927.61 2389.44 2931.58 2738.75 2706.99 2761.06C2705.78 2761.17 2704.57 2761.23 2703.38 2761.23Z" fill="#FFDF74"/>
<path d="M2447.64 2160.74C2442.26 2160.74 2436.8 2159.53 2431.58 2156.98C2412.35 2147.55 2403.95 2123.35 2412.83 2102.93C2603.89 1663.59 2324.77 1359 2321.92 1355.98C2306.96 1340.05 2306.99 1314.26 2321.99 1298.38C2337 1282.5 2361.29 1282.52 2376.24 1298.46C2379.57 1302 2458.37 1386.92 2510.88 1532.75C2559.32 1667.28 2593.72 1881.33 2482.5 2137.08C2476.02 2151.97 2462.14 2160.74 2447.64 2160.74Z" fill="#FFEACF"/>
<path d="M1289.78 2439.24C1342.75 2439.24 1385.69 2393.65 1385.69 2337.41C1385.69 2281.17 1342.75 2235.58 1289.78 2235.58C1236.81 2235.58 1193.87 2281.17 1193.87 2337.41C1193.87 2393.65 1236.81 2439.24 1289.78 2439.24Z" fill="#FFC34C"/>
<path d="M1590.7 2616.41C1643.66 2616.41 1686.6 2570.82 1686.6 2514.58C1686.6 2458.34 1643.66 2412.75 1590.7 2412.75C1537.73 2412.75 1494.79 2458.34 1494.79 2514.58C1494.79 2570.82 1537.73 2616.41 1590.7 2616.41Z" fill="#FFC34C"/>
<path d="M1847.61 1029.26C1900.58 1029.26 1943.52 983.666 1943.52 927.429C1943.52 871.191 1900.58 825.602 1847.61 825.602C1794.64 825.602 1751.71 871.191 1751.71 927.429C1751.71 983.666 1794.64 1029.26 1847.61 1029.26Z" fill="#BF6C0D"/>
</svg>
