<svg width="170" height="123" viewBox="0 0 170 123" fill="none" xmlns="http://www.w3.org/2000/svg">
<path d="M133.69 78.7329C137.91 80.6785 142.532 81.3904 147.09 80.7966C151.647 80.2028 155.978 78.3244 159.642 75.3516C163.307 72.3789 166.176 68.4174 167.958 63.8687C169.74 59.3201 170.372 54.3457 169.79 49.4499C169.208 44.554 167.432 39.9105 164.643 35.99C161.854 32.0695 158.151 29.0112 153.909 27.1251C149.666 25.2389 145.035 24.592 140.486 25.2498C135.936 25.9076 131.628 27.8467 128 30.8707L133.587 38.6195C135.945 36.6544 138.744 35.3943 141.701 34.9668C144.658 34.5394 147.667 34.9598 150.424 36.1854C153.181 37.4111 155.587 39.3985 157.4 41.9462C159.212 44.4939 160.366 47.5115 160.744 50.693C161.122 53.8745 160.712 57.107 159.553 60.0629C158.395 63.0189 156.531 65.5932 154.15 67.525C151.768 69.4568 148.954 70.6775 145.992 71.0634C143.031 71.4492 140.027 70.9866 137.285 69.7223L133.69 78.7329Z" fill="#6F4E37"/>
<path d="M140 43.7031C140 52.4229 137.385 73.5061 133.99 81.5621C130.595 89.6182 125.618 96.938 119.344 103.104C113.07 109.27 105.622 114.161 97.4243 117.498C89.227 120.834 80.4412 122.552 71.5685 122.552C62.6957 122.552 53.9099 120.834 45.7126 117.498C37.5153 114.161 30.067 109.27 23.793 103.104C17.5191 96.938 12.5423 89.6181 9.14688 81.5621C5.75144 73.5061 -7.75677e-07 48.2717 0 39.5519L45.7126 52.5519H71.5685H97.4243L140 43.7031Z" fill="#6F4E37"/>
<path d="M140 41C140 50.9411 108.66 59 70 59C31.3401 59 0 50.9411 0 41C0 31.0589 31.3401 23 70 23C108.66 23 140 31.0589 140 41Z" fill="#ECBC9B"/>
<path d="M72.9906 24.7935C72.9906 36.6676 67.3031 43.4891 58.2695 43.4891C52.6887 43.4891 47.2481 37.4716 50.5 29C52.5119 23.7586 61.5408 19.5168 61.5408 14.9782C61.5408 3.1041 45.9645 0.956482 54.9981 0.956482C64.0318 0.956482 72.9906 12.9193 72.9906 24.7935Z" fill="#D68954"/>
<path d="M90.9831 24.7935C90.9831 36.6676 85.2956 43.4892 76.262 43.4892C70.6812 43.4892 65.2406 37.4716 68.4925 29C70.5044 23.7586 79.5333 19.5168 79.5333 14.9783C79.5333 3.10412 63.957 0.956512 72.9906 0.956512C82.0243 0.956512 90.9831 12.9194 90.9831 24.7935Z" fill="url(#paint0_linear_2_16)"/>
<defs>
<linearGradient id="paint0_linear_2_16" x1="70.2526" y1="0.956482" x2="70.2526" y2="43.4892" gradientUnits="userSpaceOnUse">
<stop stop-color="#EC7E32"/>
<stop offset="0.37" stop-color="#6F4E37" stop-opacity="0.465"/>
<stop offset="1" stop-color="#6F4E37" stop-opacity="0"/>
</linearGradient>
</defs>
</svg>
