<svg width="491" height="425" viewBox="0 0 491 425" fill="none" xmlns="http://www.w3.org/2000/svg">
<path d="M255 50L260.613 67.2746H278.776L264.082 77.9508L269.695 95.2254L255 84.5491L240.305 95.2254L245.918 77.9508L231.224 67.2746H249.387L255 50Z" fill="#D9D9D9"/>
<path d="M305 100L310.613 117.275H328.776L314.082 127.951L319.695 145.225L305 134.549L290.305 145.225L295.918 127.951L281.224 117.275H299.387L305 100Z" fill="#D9D9D9"/>
<ellipse cx="184" cy="244.5" rx="184" ry="180.5" fill="#EE751E"/>
<ellipse cx="255" cy="183.5" rx="184" ry="180.5" fill="white"/>
<path d="M272.69 260.776C276.91 262.722 281.532 263.434 286.09 262.84C290.647 262.246 294.978 260.368 298.642 257.395C302.307 254.422 305.176 250.461 306.958 245.912C308.74 241.364 309.372 236.389 308.79 231.493C308.208 226.598 306.432 221.954 303.643 218.034C300.854 214.113 297.151 211.055 292.909 209.169C288.666 207.282 284.035 206.636 279.486 207.293C274.936 207.951 270.628 209.89 267 212.914L272.587 220.663C274.945 218.698 277.744 217.438 280.701 217.01C283.658 216.583 286.667 217.003 289.424 218.229C292.181 219.455 294.587 221.442 296.4 223.99C298.212 226.537 299.366 229.555 299.744 232.737C300.122 235.918 299.712 239.151 298.553 242.106C297.395 245.062 295.531 247.637 293.15 249.568C290.768 251.5 287.954 252.721 284.992 253.107C282.031 253.493 279.027 253.03 276.285 251.766L272.69 260.776Z" fill="#EE751E"/>
<path d="M279 225.747C279 234.466 276.385 255.55 272.99 263.606C269.595 271.662 264.618 278.982 258.344 285.147C252.07 291.313 244.622 296.204 236.424 299.541C228.227 302.878 219.441 304.595 210.568 304.595C201.696 304.595 192.91 302.878 184.713 299.541C176.515 296.204 169.067 291.313 162.793 285.147C156.519 278.982 151.542 271.662 148.147 263.606C144.751 255.55 139 230.315 139 221.595L184.713 234.595H210.568H236.424L279 225.747Z" fill="url(#paint0_radial_4_13)"/>
<path d="M279 223.044C279 232.985 247.66 241.044 209 241.044C170.34 241.044 139 232.985 139 223.044C139 213.102 170.34 205.044 209 205.044C247.66 205.044 279 213.102 279 223.044Z" fill="#ECBC9B"/>
<path d="M211.991 206.837C211.991 218.711 206.303 225.533 197.269 225.533C191.689 225.533 186.248 219.515 189.5 211.044C191.512 205.802 200.541 201.56 200.541 197.022C200.541 185.148 184.965 183 193.998 183C203.032 183 211.991 194.963 211.991 206.837Z" fill="#D68954"/>
<path d="M229.983 206.837C229.983 218.711 224.296 225.533 215.262 225.533C209.681 225.533 204.241 219.515 207.492 211.044C209.504 205.802 218.533 201.56 218.533 197.022C218.533 185.148 202.957 183 211.991 183C221.024 183 229.983 194.963 229.983 206.837Z" fill="url(#paint1_linear_4_13)"/>
<path d="M255 50L260.613 67.2746H278.776L264.082 77.9508L269.695 95.2254L255 84.5491L240.305 95.2254L245.918 77.9508L231.224 67.2746H249.387L255 50Z" fill="#1E1E1E"/>
<path d="M334 113L339.613 130.275H357.776L343.082 140.951L348.695 158.225L334 147.549L319.305 158.225L324.918 140.951L310.224 130.275H328.387L334 113Z" fill="#6F4E37"/>
<path d="M416 255L421.613 272.275H439.776L425.082 282.951L430.695 300.225L416 289.549L401.305 300.225L406.918 282.951L392.224 272.275H410.387L416 255Z" fill="url(#paint2_linear_4_13)"/>
<path d="M466 25L471.613 42.2746H489.776L475.082 52.9508L480.695 70.2254L466 59.5491L451.305 70.2254L456.918 52.9508L442.224 42.2746H460.387L466 25Z" fill="#D68954"/>
<path d="M131 0L136.613 17.2746H154.776L140.082 27.9508L145.695 45.2254L131 34.5491L116.305 45.2254L121.918 27.9508L107.224 17.2746H125.387L131 0Z" fill="url(#paint3_angular_4_13)"/>
<defs>
<radialGradient id="paint0_radial_4_13" cx="0" cy="0" r="1" gradientUnits="userSpaceOnUse" gradientTransform="translate(209 263.095) rotate(90) scale(41.5 70)">
<stop offset="0.33505" stop-color="#EE751E"/>
<stop offset="1" stop-color="#EE751E" stop-opacity="0"/>
</radialGradient>
<linearGradient id="paint1_linear_4_13" x1="209.253" y1="183" x2="209.253" y2="225.533" gradientUnits="userSpaceOnUse">
<stop stop-color="#EC7E32"/>
<stop offset="0.37" stop-color="#6F4E37" stop-opacity="0.465"/>
<stop offset="1" stop-color="#6F4E37" stop-opacity="0"/>
</linearGradient>
<linearGradient id="paint2_linear_4_13" x1="416" y1="255" x2="416" y2="305" gradientUnits="userSpaceOnUse">
<stop stop-color="#6F4E37"/>
<stop offset="1" stop-color="#6F4E37" stop-opacity="0"/>
</linearGradient>
<radialGradient id="paint3_angular_4_13" cx="0" cy="0" r="1" gradientUnits="userSpaceOnUse" gradientTransform="translate(131 25) rotate(-123.69) scale(21.6333)">
<stop stop-color="#EE751E"/>
<stop offset="1" stop-color="#EE751E" stop-opacity="0"/>
</radialGradient>
</defs>
</svg>
